<svg width="376" height="410" viewBox="0 0 376 410" fill="none" xmlns="http://www.w3.org/2000/svg">
<path d="M17.2791 120.25C80.26 197.217 67.7562 307.483 53.6316 352.995C155.112 199.957 86.0876 66.5571 38.8905 18.9867L17.2791 120.25Z" fill="white" fill-opacity="0.08"/>
<path d="M116.647 114.781C148.383 209.032 97.7374 307.774 68.4478 345.364C217.442 238.034 199.985 88.8525 172.633 27.6777L116.647 114.781Z" fill="white" fill-opacity="0.08"/>
<path d="M196.772 215.121C180.757 292.195 106.673 339.391 71.6324 353.355C216.333 339.625 264.07 230.738 269.85 178.011L196.772 215.121Z" fill="white" fill-opacity="0.08"/>
<path d="M231.885 290.339C189.78 350.117 109.213 362.989 74.1931 361.953C202.589 403.675 283.476 328.496 307.87 285.692L231.885 290.339Z" fill="white" fill-opacity="0.08"/>
</svg>
