<svg width="163" height="174" viewBox="0 0 163 174" fill="none" xmlns="http://www.w3.org/2000/svg">
<g opacity="0.56">
<path d="M162.004 114.829C124.986 85.2152 119.845 32.5679 121.901 9.94598C89.8191 91.3849 135.269 146.706 162.004 164.186L162.004 114.829Z" fill="white" fill-opacity="0.08"/>
<path d="M116.225 127.265C92.0532 86.4849 105.839 35.4151 115.753 14.9777C56.974 79.8355 79.9539 147.644 98.7912 173.441L116.225 127.265Z" fill="white" fill-opacity="0.08"/>
<path d="M68.8893 88.4609C68.6868 50.9372 98.5278 21.5649 113.474 11.5692C47.3836 32.3661 35.963 87.8758 38.5139 113.031L68.8893 88.4609Z" fill="white" fill-opacity="0.08"/>
<path d="M45.0371 56.889C58.7184 24.8332 94.9959 10.8168 111.425 7.81555C47.4184 1.13998 17.1903 44.2339 10.0771 66.6154L45.0371 56.889Z" fill="white" fill-opacity="0.08"/>
</g>
</svg>
